<?xml version="1.0" encoding="UTF-8" standalone="no"?>
<!DOCTYPE svg PUBLIC "-//W3C//DTD SVG 1.1//EN" "http://www.w3.org/Graphics/SVG/1.1/DTD/svg11.dtd">
<svg width="100%" height="100%" viewBox="0 0 167 167" version="1.1" xmlns="http://www.w3.org/2000/svg" xmlns:xlink="http://www.w3.org/1999/xlink" xml:space="preserve" xmlns:serif="http://www.serif.com/" style="fill-rule:evenodd;clip-rule:evenodd;">
    <g id="data-visualisering-kartografi">
        <rect x="0" y="0" width="167" height="167" style="fill:white;"/>
        <g id="Oval-Copy" transform="matrix(1,0,0,1,11,11)">
            <circle cx="3" cy="3" r="3" style="fill:none;stroke:black;stroke-width:1px;"/>
        </g>
        <g id="Oval-Copy1" serif:id="Oval-Copy" transform="matrix(1,0,0,1,31,11)">
            <circle cx="3" cy="3" r="3" style="fill:none;stroke:black;stroke-width:1px;"/>
        </g>
        <g id="Oval-Copy2" serif:id="Oval-Copy" transform="matrix(1,0,0,1,51,11)">
            <circle cx="3" cy="3" r="3" style="fill:none;stroke:black;stroke-width:1px;"/>
        </g>
        <g id="Oval-Copy3" serif:id="Oval-Copy" transform="matrix(1,0,0,1,71,11)">
            <circle cx="3" cy="3" r="3" style="fill:none;stroke:black;stroke-width:1px;"/>
        </g>
        <g id="Oval-Copy4" serif:id="Oval-Copy" transform="matrix(1,0,0,1,91,11)">
            <circle cx="3" cy="3" r="3" style="fill:none;stroke:black;stroke-width:1px;"/>
        </g>
        <g id="Oval-Copy5" serif:id="Oval-Copy" transform="matrix(1,0,0,1,111,11)">
            <circle cx="3" cy="3" r="3" style="fill:none;stroke:black;stroke-width:1px;"/>
        </g>
        <g id="Oval-Copy6" serif:id="Oval-Copy" transform="matrix(1,0,0,1,131,11)">
            <circle cx="3" cy="3" r="3" style="fill:none;stroke:black;stroke-width:1px;"/>
        </g>
        <g id="Oval-Copy7" serif:id="Oval-Copy" transform="matrix(1,0,0,1,151,11)">
            <circle cx="3" cy="3" r="3" style="fill:none;stroke:black;stroke-width:1px;"/>
        </g>
        <g id="Oval-Copy8" serif:id="Oval-Copy" transform="matrix(1,0,0,1,11,31)">
            <circle cx="3" cy="3" r="3" style="fill:none;stroke:black;stroke-width:1px;"/>
        </g>
        <g id="Oval-Copy9" serif:id="Oval-Copy" transform="matrix(1,0,0,1,31,31)">
            <circle cx="3" cy="3" r="3" style="fill:none;stroke:black;stroke-width:1px;"/>
        </g>
        <g id="Oval-Copy10" serif:id="Oval-Copy" transform="matrix(1,0,0,1,51,31)">
            <circle cx="3" cy="3" r="3" style="fill:none;stroke:black;stroke-width:1px;"/>
        </g>
        <g id="Oval-Copy11" serif:id="Oval-Copy" transform="matrix(1,0,0,1,71,31)">
            <circle cx="3" cy="3" r="3" style="fill:none;stroke:black;stroke-width:1px;"/>
        </g>
        <g id="Oval-Copy12" serif:id="Oval-Copy" transform="matrix(1,0,0,1,91,31)">
            <circle cx="3" cy="3" r="3" style="fill:none;stroke:black;stroke-width:1px;"/>
        </g>
        <g id="Oval-Copy13" serif:id="Oval-Copy" transform="matrix(1,0,0,1,111,31)">
            <circle cx="3" cy="3" r="3" style="fill:none;stroke:black;stroke-width:1px;"/>
        </g>
        <g id="Oval-Copy14" serif:id="Oval-Copy" transform="matrix(1,0,0,1,131,31)">
            <circle cx="3" cy="3" r="3" style="fill:none;stroke:black;stroke-width:1px;"/>
        </g>
        <g id="Oval-Copy15" serif:id="Oval-Copy" transform="matrix(1,0,0,1,151,31)">
            <circle cx="3" cy="3" r="3" style="fill:none;stroke:black;stroke-width:1px;"/>
        </g>
        <g id="Oval-Copy16" serif:id="Oval-Copy" transform="matrix(1,0,0,1,11,51)">
            <circle cx="3" cy="3" r="3" style="fill:none;stroke:black;stroke-width:1px;"/>
        </g>
        <g id="Oval-Copy17" serif:id="Oval-Copy" transform="matrix(1,0,0,1,31,51)">
            <circle cx="3" cy="3" r="3" style="fill:none;stroke:black;stroke-width:1px;"/>
        </g>
        <g id="Oval-Copy18" serif:id="Oval-Copy" transform="matrix(1,0,0,1,51,51)">
            <circle cx="3" cy="3" r="3" style="fill:none;stroke:black;stroke-width:1px;"/>
        </g>
        <g id="Oval-Copy19" serif:id="Oval-Copy" transform="matrix(1,0,0,1,71,51)">
            <circle cx="3" cy="3" r="3" style="fill:none;stroke:black;stroke-width:1px;"/>
        </g>
        <g id="Oval-Copy20" serif:id="Oval-Copy" transform="matrix(1,0,0,1,91,51)">
            <circle cx="3" cy="3" r="3" style="fill:none;stroke:black;stroke-width:1px;"/>
        </g>
        <g id="Oval-Copy21" serif:id="Oval-Copy" transform="matrix(1,0,0,1,111,51)">
            <circle cx="3" cy="3" r="3" style="fill:none;stroke:black;stroke-width:1px;"/>
        </g>
        <g id="Oval-Copy22" serif:id="Oval-Copy" transform="matrix(1,0,0,1,131,51)">
            <circle cx="3" cy="3" r="3" style="fill:none;stroke:black;stroke-width:1px;"/>
        </g>
        <g id="Oval-Copy23" serif:id="Oval-Copy" transform="matrix(1,0,0,1,151,51)">
            <circle cx="3" cy="3" r="3" style="fill:none;stroke:black;stroke-width:1px;"/>
        </g>
        <g id="Oval-Copy24" serif:id="Oval-Copy" transform="matrix(1,0,0,1,11,71)">
            <circle cx="3" cy="3" r="3" style="fill:none;stroke:black;stroke-width:1px;"/>
        </g>
        <g id="Oval-Copy25" serif:id="Oval-Copy" transform="matrix(1,0,0,1,31,71)">
            <circle cx="3" cy="3" r="3" style="fill:none;stroke:black;stroke-width:1px;"/>
        </g>
        <g id="Oval-Copy26" serif:id="Oval-Copy" transform="matrix(1,0,0,1,51,71)">
            <circle cx="3" cy="3" r="3" style="fill:none;stroke:black;stroke-width:1px;"/>
        </g>
        <g id="Oval-Copy27" serif:id="Oval-Copy" transform="matrix(1,0,0,1,71,71)">
            <circle cx="3" cy="3" r="3" style="fill:none;stroke:black;stroke-width:1px;"/>
        </g>
        <g id="Oval-Copy28" serif:id="Oval-Copy" transform="matrix(1,0,0,1,91,71)">
            <circle cx="3" cy="3" r="3" style="fill:none;stroke:black;stroke-width:1px;"/>
        </g>
        <g id="Oval-Copy29" serif:id="Oval-Copy" transform="matrix(1,0,0,1,111,71)">
            <circle cx="3" cy="3" r="3" style="fill:none;stroke:black;stroke-width:1px;"/>
        </g>
        <g id="Oval-Copy30" serif:id="Oval-Copy" transform="matrix(1,0,0,1,131,71)">
            <circle cx="3" cy="3" r="3" style="fill:none;stroke:black;stroke-width:1px;"/>
        </g>
        <g id="Oval-Copy31" serif:id="Oval-Copy" transform="matrix(1,0,0,1,151,71)">
            <circle cx="3" cy="3" r="3" style="fill:none;stroke:black;stroke-width:1px;"/>
        </g>
        <g id="Oval-Copy32" serif:id="Oval-Copy" transform="matrix(1,0,0,1,11,91)">
            <circle cx="3" cy="3" r="3" style="fill:none;stroke:black;stroke-width:1px;"/>
        </g>
        <g id="Oval-Copy33" serif:id="Oval-Copy" transform="matrix(1,0,0,1,31,91)">
            <circle cx="3" cy="3" r="3" style="fill:none;stroke:black;stroke-width:1px;"/>
        </g>
        <g id="Oval-Copy34" serif:id="Oval-Copy" transform="matrix(1,0,0,1,51,91)">
            <circle cx="3" cy="3" r="3" style="fill:none;stroke:black;stroke-width:1px;"/>
        </g>
        <g id="Oval-Copy35" serif:id="Oval-Copy" transform="matrix(1,0,0,1,71,91)">
            <circle cx="3" cy="3" r="3" style="fill:none;stroke:black;stroke-width:1px;"/>
        </g>
        <g id="Oval-Copy36" serif:id="Oval-Copy" transform="matrix(1,0,0,1,91,91)">
            <circle cx="3" cy="3" r="3" style="fill:none;stroke:black;stroke-width:1px;"/>
        </g>
        <g id="Oval-Copy37" serif:id="Oval-Copy" transform="matrix(1,0,0,1,111,91)">
            <circle cx="3" cy="3" r="3" style="fill:none;stroke:black;stroke-width:1px;"/>
        </g>
        <g id="Oval-Copy38" serif:id="Oval-Copy" transform="matrix(1,0,0,1,131,91)">
            <circle cx="3" cy="3" r="3" style="fill:none;stroke:black;stroke-width:1px;"/>
        </g>
        <g id="Oval-Copy39" serif:id="Oval-Copy" transform="matrix(1,0,0,1,151,91)">
            <circle cx="3" cy="3" r="3" style="fill:none;stroke:black;stroke-width:1px;"/>
        </g>
        <g id="Oval-Copy40" serif:id="Oval-Copy" transform="matrix(1,0,0,1,11,111)">
            <circle cx="3" cy="3" r="3" style="fill:none;stroke:black;stroke-width:1px;"/>
        </g>
        <g id="Oval-Copy41" serif:id="Oval-Copy" transform="matrix(1,0,0,1,31,111)">
            <circle cx="3" cy="3" r="3" style="fill:none;stroke:black;stroke-width:1px;"/>
        </g>
        <g id="Oval-Copy42" serif:id="Oval-Copy" transform="matrix(1,0,0,1,51,111)">
            <circle cx="3" cy="3" r="3" style="fill:none;stroke:black;stroke-width:1px;"/>
        </g>
        <g id="Oval-Copy43" serif:id="Oval-Copy" transform="matrix(1,0,0,1,71,111)">
            <circle cx="3" cy="3" r="3" style="fill:none;stroke:black;stroke-width:1px;"/>
        </g>
        <g id="Oval-Copy44" serif:id="Oval-Copy" transform="matrix(1,0,0,1,91,111)">
            <circle cx="3" cy="3" r="3" style="fill:none;stroke:black;stroke-width:1px;"/>
        </g>
        <g id="Oval-Copy45" serif:id="Oval-Copy" transform="matrix(1,0,0,1,111,111)">
            <circle cx="3" cy="3" r="3" style="fill:none;stroke:black;stroke-width:1px;"/>
        </g>
        <g id="Oval-Copy46" serif:id="Oval-Copy" transform="matrix(1,0,0,1,131,111)">
            <circle cx="3" cy="3" r="3" style="fill:none;stroke:black;stroke-width:1px;"/>
        </g>
        <g id="Oval-Copy47" serif:id="Oval-Copy" transform="matrix(1,0,0,1,151,111)">
            <circle cx="3" cy="3" r="3" style="fill:none;stroke:black;stroke-width:1px;"/>
        </g>
        <g id="Oval-Copy48" serif:id="Oval-Copy" transform="matrix(1,0,0,1,11,131)">
            <circle cx="3" cy="3" r="3" style="fill:none;stroke:black;stroke-width:1px;"/>
        </g>
        <g id="Oval-Copy49" serif:id="Oval-Copy" transform="matrix(1,0,0,1,31,131)">
            <circle cx="3" cy="3" r="3" style="fill:none;stroke:black;stroke-width:1px;"/>
        </g>
        <g id="Oval-Copy50" serif:id="Oval-Copy" transform="matrix(1,0,0,1,51,131)">
            <circle cx="3" cy="3" r="3" style="fill:none;stroke:black;stroke-width:1px;"/>
        </g>
        <g id="Oval-Copy51" serif:id="Oval-Copy" transform="matrix(1,0,0,1,71,131)">
            <circle cx="3" cy="3" r="3" style="fill:none;stroke:black;stroke-width:1px;"/>
        </g>
        <g id="Oval-Copy52" serif:id="Oval-Copy" transform="matrix(1,0,0,1,91,131)">
            <circle cx="3" cy="3" r="3" style="fill:none;stroke:black;stroke-width:1px;"/>
        </g>
        <g id="Oval-Copy53" serif:id="Oval-Copy" transform="matrix(1,0,0,1,111,131)">
            <circle cx="3" cy="3" r="3" style="fill:none;stroke:black;stroke-width:1px;"/>
        </g>
        <g id="Oval-Copy54" serif:id="Oval-Copy" transform="matrix(1,0,0,1,131,131)">
            <circle cx="3" cy="3" r="3" style="fill:none;stroke:black;stroke-width:1px;"/>
        </g>
        <g id="Oval-Copy55" serif:id="Oval-Copy" transform="matrix(1,0,0,1,151,131)">
            <circle cx="3" cy="3" r="3" style="fill:none;stroke:black;stroke-width:1px;"/>
        </g>
        <g id="Oval-Copy56" serif:id="Oval-Copy" transform="matrix(1,0,0,1,11,151)">
            <circle cx="3" cy="3" r="3" style="fill:none;stroke:black;stroke-width:1px;"/>
        </g>
        <g id="Oval-Copy57" serif:id="Oval-Copy" transform="matrix(1,0,0,1,31,151)">
            <circle cx="3" cy="3" r="3" style="fill:none;stroke:black;stroke-width:1px;"/>
        </g>
        <g id="Oval-Copy58" serif:id="Oval-Copy" transform="matrix(1,0,0,1,51,151)">
            <circle cx="3" cy="3" r="3" style="fill:none;stroke:black;stroke-width:1px;"/>
        </g>
        <g id="Oval-Copy59" serif:id="Oval-Copy" transform="matrix(1,0,0,1,71,151)">
            <circle cx="3" cy="3" r="3" style="fill:none;stroke:black;stroke-width:1px;"/>
        </g>
        <g id="Oval-Copy60" serif:id="Oval-Copy" transform="matrix(1,0,0,1,91,151)">
            <circle cx="3" cy="3" r="3" style="fill:none;stroke:black;stroke-width:1px;"/>
        </g>
        <g id="Oval-Copy61" serif:id="Oval-Copy" transform="matrix(1,0,0,1,111,151)">
            <circle cx="3" cy="3" r="3" style="fill:none;stroke:black;stroke-width:1px;"/>
        </g>
        <g id="Oval-Copy62" serif:id="Oval-Copy" transform="matrix(1,0,0,1,131,151)">
            <circle cx="3" cy="3" r="3" style="fill:none;stroke:black;stroke-width:1px;"/>
        </g>
        <g id="Oval-Copy63" serif:id="Oval-Copy" transform="matrix(1,0,0,1,151,151)">
            <circle cx="3" cy="3" r="3" style="fill:none;stroke:black;stroke-width:1px;"/>
        </g>
        <path id="Path-4-Copy" d="M37.042,68.289C41.061,63.246 44.557,60.411 48.081,57.947" style="fill:none;stroke:rgb(151,151,151);stroke-width:1px;"/>
        <path id="Path-4-Copy1" serif:id="Path-4-Copy" d="M58.763,50.55C66.189,45.599 72.111,41.807 77.163,39.11C83.794,35.569 82.562,34.868 87.634,34.954" style="fill:none;stroke:rgb(151,151,151);stroke-width:1px;"/>
        <path id="Path-4-Copy2" serif:id="Path-4-Copy" d="M99.354,34.218C108.29,34.368 99.538,34.572 107.973,34.123" style="fill:none;stroke:rgb(151,151,151);stroke-width:1px;"/>
        <path id="Path-4-Copy3" serif:id="Path-4-Copy" d="M119.681,31.217C123.225,31.028 121.502,31.094 125.875,25.846" style="fill:none;stroke:rgb(151,151,151);stroke-width:1px;"/>
        <path id="Path-4-Copy4" serif:id="Path-4-Copy" d="M125.875,25.846C128.441,22.768 131.149,18.819 134,14" style="fill:none;stroke:rgb(151,151,151);stroke-width:1px;"/>
        <rect id="Rectangle" x="84" y="83" width="60" height="62" style="fill:none;stroke:rgb(151,151,151);stroke-width:1px;"/>
    </g>
</svg>
